<?xml version="1.0" encoding="UTF-8" standalone="no"?>
<!-- Generator: Adobe Illustrator 19.0.0, SVG Export Plug-In . SVG Version: 6.00 Build 0)  -->

<svg
   xmlns:dc="http://purl.org/dc/elements/1.1/"
   xmlns:cc="http://creativecommons.org/ns#"
   xmlns:rdf="http://www.w3.org/1999/02/22-rdf-syntax-ns#"
   xmlns:svg="http://www.w3.org/2000/svg"
   xmlns="http://www.w3.org/2000/svg"
   xmlns:sodipodi="http://sodipodi.sourceforge.net/DTD/sodipodi-0.dtd"
   xmlns:inkscape="http://www.inkscape.org/namespaces/inkscape"
   version="1.1"
   id="Layer_1"
   x="0px"
   y="0px"
   viewBox="0 0 286.036 286.036"
   style="enable-background:new 0 0 286.036 286.036;"
   xml:space="preserve"
   inkscape:version="0.91 r13725"
   sodipodi:docname="idle.svg"><metadata
     id="metadata41"><rdf:RDF><cc:Work
         rdf:about=""><dc:format>image/svg+xml</dc:format><dc:type
           rdf:resource="http://purl.org/dc/dcmitype/StillImage" /></cc:Work></rdf:RDF></metadata><defs
     id="defs39" /><sodipodi:namedview
     pagecolor="#ffffff"
     bordercolor="#666666"
     borderopacity="1"
     objecttolerance="10"
     gridtolerance="10"
     guidetolerance="10"
     inkscape:pageopacity="0"
     inkscape:pageshadow="2"
     inkscape:window-width="1366"
     inkscape:window-height="744"
     id="namedview37"
     showgrid="false"
     inkscape:zoom="2.333653"
     inkscape:cx="128.48515"
     inkscape:cy="126.00021"
     inkscape:window-x="0"
     inkscape:window-y="24"
     inkscape:window-maximized="1"
     inkscape:current-layer="Layer_1" /><g
     id="g3"><path
       style="fill:#39b29d"
       d="M 231.641,113.009 C 227.726,72.22 193.766,40.217 151.957,40.217 c -32.351,0 -60.053,19.201 -72.819,46.752 -3.844,-1.216 -7.849,-2.056 -12.095,-2.056 -22.214,0 -40.226,18.021 -40.226,40.226 0,4.416 0.885,8.591 2.199,12.551 C 11.737,147.765 0,166.269 0,187.705 0,219.797 26.013,245.81 58.105,245.81 l 0,0.009 160.896,0 0,-0.009 c 37.035,0 67.035,-30.009 67.035,-67.044 0,-32.691 -23.421,-59.839 -54.395,-65.757 z"
       id="path5"
       inkscape:connector-curvature="0"
       sodipodi:nodetypes="cscsscsccccsc" /></g><g
     id="g7" /><g
     id="g9" /><g
     id="g11" /><g
     id="g13" /><g
     id="g15" /><g
     id="g17" /><g
     id="g19" /><g
     id="g21" /><g
     id="g23" /><g
     id="g25" /><g
     id="g27" /><g
     id="g29" /><g
     id="g31" /><g
     id="g33" /><g
     id="g35" /></svg>