<?xml version="1.0" encoding="UTF-8" standalone="no"?>
<!-- Generator: Adobe Illustrator 19.0.0, SVG Export Plug-In . SVG Version: 6.00 Build 0)  -->

<svg
   xmlns:dc="http://purl.org/dc/elements/1.1/"
   xmlns:cc="http://creativecommons.org/ns#"
   xmlns:rdf="http://www.w3.org/1999/02/22-rdf-syntax-ns#"
   xmlns:svg="http://www.w3.org/2000/svg"
   xmlns="http://www.w3.org/2000/svg"
   xmlns:sodipodi="http://sodipodi.sourceforge.net/DTD/sodipodi-0.dtd"
   xmlns:inkscape="http://www.inkscape.org/namespaces/inkscape"
   version="1.1"
   id="Layer_1"
   x="0px"
   y="0px"
   viewBox="0 0 286.036 286.036"
   style="enable-background:new 0 0 286.036 286.036;"
   xml:space="preserve"
   inkscape:version="0.91 r13725"
   sodipodi:docname="notconnected.svg"><metadata
     id="metadata41"><rdf:RDF><cc:Work
         rdf:about=""><dc:format>image/svg+xml</dc:format><dc:type
           rdf:resource="http://purl.org/dc/dcmitype/StillImage" /><dc:title /></cc:Work></rdf:RDF></metadata><defs
     id="defs39"><clipPath
       clipPathUnits="userSpaceOnUse"
       id="clipPath4748"><rect
         style="fill:#000000;fill-opacity:1"
         id="rect4750"
         width="53.971008"
         height="104.04572"
         x="181.29834"
         y="454.35187"
         ry="0" /></clipPath><clipPath
       clipPathUnits="userSpaceOnUse"
       id="clipPath4794"><rect
         style="fill:#000000;fill-opacity:1"
         id="rect4796"
         width="53.971008"
         height="104.04572"
         x="181.29834"
         y="454.35187"
         ry="0" /></clipPath></defs><sodipodi:namedview
     pagecolor="#ffffff"
     bordercolor="#666666"
     borderopacity="1"
     objecttolerance="10"
     gridtolerance="10"
     guidetolerance="10"
     inkscape:pageopacity="0"
     inkscape:pageshadow="2"
     inkscape:window-width="1366"
     inkscape:window-height="744"
     id="namedview37"
     showgrid="true"
     inkscape:zoom="0.82507093"
     inkscape:cx="87.901159"
     inkscape:cy="91.381564"
     inkscape:window-x="0"
     inkscape:window-y="24"
     inkscape:window-maximized="1"
     inkscape:current-layer="Layer_1"><inkscape:grid
       type="xygrid"
       id="grid4837" /></sodipodi:namedview><path
     style="fill:#39b29d"
     d="M 151.95703 40.216797 C 119.59703 40.216797 91.904672 59.41775 79.138672 86.96875 C 75.285672 85.74375 71.288969 84.912109 67.042969 84.912109 C 44.828969 84.912109 26.816406 102.93367 26.816406 125.13867 C 26.816406 129.55467 27.701625 133.72945 29.015625 137.68945 C 11.727625 147.76445 0 166.25931 0 187.69531 C 0 219.78731 26.013469 245.80078 58.105469 245.80078 L 58.105469 245.81836 L 219.00977 245.81836 L 219.00977 245.80078 C 256.04477 245.80078 286.03516 215.79281 286.03516 178.75781 C 286.02616 146.07581 262.61464 118.92777 231.64062 113.00977 C 227.71663 72.220754 193.75703 40.216797 151.95703 40.216797 z M 117.13086 125.39453 L 128.73438 125.39453 L 128.73438 135.30859 C 129.05374 135.23264 129.3859 135.1875 129.73047 135.1875 L 139.98633 135.1875 C 142.259 135.1875 144.08984 136.94036 144.08984 139.11719 L 144.08984 141.08203 C 144.08984 143.25886 142.259 145.01172 139.98633 145.01172 L 129.73047 145.01172 C 129.3859 145.01172 129.05374 144.96653 128.73438 144.89062 L 128.73438 172.7207 C 129.0537 172.64472 129.38594 172.60156 129.73047 172.60156 L 139.98633 172.60156 C 142.259 172.60156 144.08984 174.35247 144.08984 176.5293 L 144.08984 178.49414 C 144.08984 180.67097 142.259 182.42383 139.98633 182.42383 L 129.73047 182.42383 C 129.38594 182.42383 129.05371 182.37863 128.73438 182.30273 L 128.73438 192.44531 L 117.50977 192.44531 L 117.50977 192.47266 A 35.016311 33.539616 0 0 1 87.185547 175.70312 A 35.016311 33.539616 0 0 1 82.767578 163.10156 L 64.716797 163.10156 C 62.765415 163.10156 61.193359 161.59565 61.193359 159.72656 L 61.193359 159.13281 C 61.193359 157.26372 62.765415 155.75781 64.716797 155.75781 L 82.677734 155.75781 A 35.016311 33.539616 0 0 1 87.185547 142.16406 A 35.016311 33.539616 0 0 1 117.13086 125.40234 L 117.13086 125.39453 z M 176.56836 125.39453 A 35.016311 33.539616 0 0 1 206.89258 142.16406 A 35.016311 33.539616 0 0 1 211.31055 154.76562 L 229.36133 154.76562 C 231.31271 154.76562 232.88477 156.27154 232.88477 158.14062 L 232.88477 158.73633 C 232.88477 160.60541 231.31271 162.10938 229.36133 162.10938 L 211.40039 162.10938 A 35.016311 33.539616 0 0 1 206.89258 175.70508 A 35.016311 33.539616 0 0 1 176.94727 192.46484 L 176.94727 192.47266 L 176.94727 192.47461 L 165.34375 192.47461 L 165.34375 125.42188 L 176.56836 125.42188 L 176.56836 125.39453 z "
     id="path5" /><g
     id="g7" /><g
     id="g9" /><g
     id="g11" /><g
     id="g13" /><g
     id="g15" /><g
     id="g17" /><g
     id="g19" /><g
     id="g21" /><g
     id="g23" /><g
     id="g25" /><g
     id="g27" /><g
     id="g29" /><g
     id="g31" /><g
     id="g33" /><g
     id="g35" /></svg>