<?xml version="1.0" encoding="UTF-8" standalone="no"?>
<!-- Generator: Adobe Illustrator 19.0.0, SVG Export Plug-In . SVG Version: 6.00 Build 0)  -->

<svg
   xmlns:dc="http://purl.org/dc/elements/1.1/"
   xmlns:cc="http://creativecommons.org/ns#"
   xmlns:rdf="http://www.w3.org/1999/02/22-rdf-syntax-ns#"
   xmlns:svg="http://www.w3.org/2000/svg"
   xmlns="http://www.w3.org/2000/svg"
   xmlns:sodipodi="http://sodipodi.sourceforge.net/DTD/sodipodi-0.dtd"
   xmlns:inkscape="http://www.inkscape.org/namespaces/inkscape"
   version="1.1"
   id="Layer_1"
   x="0px"
   y="0px"
   viewBox="0 0 286.036 286.036"
   style="enable-background:new 0 0 286.036 286.036;"
   xml:space="preserve"
   inkscape:version="0.91 r13725"
   sodipodi:docname="pause.svg"><metadata
     id="metadata41"><rdf:RDF><cc:Work
         rdf:about=""><dc:format>image/svg+xml</dc:format><dc:type
           rdf:resource="http://purl.org/dc/dcmitype/StillImage" /><dc:title /></cc:Work></rdf:RDF></metadata><defs
     id="defs39" /><sodipodi:namedview
     pagecolor="#ffffff"
     bordercolor="#666666"
     borderopacity="1"
     objecttolerance="10"
     gridtolerance="10"
     guidetolerance="10"
     inkscape:pageopacity="0"
     inkscape:pageshadow="2"
     inkscape:window-width="1366"
     inkscape:window-height="744"
     id="namedview37"
     showgrid="false"
     inkscape:zoom="2.333653"
     inkscape:cx="133.77454"
     inkscape:cy="135.49456"
     inkscape:window-x="0"
     inkscape:window-y="24"
     inkscape:window-maximized="1"
     inkscape:current-layer="Layer_1" /><path
     style="fill:#39b29d"
     d="M 151.95703 40.216797 C 119.59703 40.216797 91.904672 59.41775 79.138672 86.96875 C 75.285672 85.74375 71.288969 84.912109 67.042969 84.912109 C 44.828969 84.912109 26.816406 102.93367 26.816406 125.13867 C 26.816406 129.55467 27.701625 133.72945 29.015625 137.68945 C 11.727625 147.76445 0 166.25931 0 187.69531 C 0 219.78731 26.013469 245.80078 58.105469 245.80078 L 58.105469 245.81836 L 219.00977 245.81836 L 219.00977 245.80078 C 256.04477 245.80078 286.03516 215.79281 286.03516 178.75781 C 286.02616 146.07581 262.61462 118.92777 231.64062 113.00977 C 227.71663 72.220766 193.75703 40.216797 151.95703 40.216797 z M 122.62109 114.99414 L 128.68164 114.99414 C 135.39622 114.99414 140.80273 120.40066 140.80273 127.11523 L 140.80273 185.29102 C 140.80273 192.00559 135.39622 197.41211 128.68164 197.41211 L 122.62109 197.41211 C 115.90652 197.41211 110.50195 192.00559 110.50195 185.29102 L 110.50195 127.11523 C 110.50195 120.40066 115.90652 114.99414 122.62109 114.99414 z M 164.13281 114.99414 L 170.19336 114.99414 C 176.90794 114.99414 182.31445 120.40066 182.31445 127.11523 L 182.31445 185.29102 C 182.31445 192.00559 176.90794 197.41211 170.19336 197.41211 L 164.13281 197.41211 C 157.41824 197.41211 152.01367 192.00559 152.01367 185.29102 L 152.01367 127.11523 C 152.01367 120.40066 157.41824 114.99414 164.13281 114.99414 z "
     id="path5" /><g
     id="g7" /><g
     id="g9" /><g
     id="g11" /><g
     id="g13" /><g
     id="g15" /><g
     id="g17" /><g
     id="g19" /><g
     id="g21" /><g
     id="g23" /><g
     id="g25" /><g
     id="g27" /><g
     id="g29" /><g
     id="g31" /><g
     id="g33" /><g
     id="g35" /></svg>