<?xml version="1.0" encoding="UTF-8" standalone="no"?>
<!-- Generator: Adobe Illustrator 19.0.0, SVG Export Plug-In . SVG Version: 6.00 Build 0)  -->

<svg
   xmlns:dc="http://purl.org/dc/elements/1.1/"
   xmlns:cc="http://creativecommons.org/ns#"
   xmlns:rdf="http://www.w3.org/1999/02/22-rdf-syntax-ns#"
   xmlns:svg="http://www.w3.org/2000/svg"
   xmlns="http://www.w3.org/2000/svg"
   xmlns:sodipodi="http://sodipodi.sourceforge.net/DTD/sodipodi-0.dtd"
   xmlns:inkscape="http://www.inkscape.org/namespaces/inkscape"
   version="1.1"
   id="Layer_1"
   x="0px"
   y="0px"
   viewBox="0 0 281.036 286.036"
   xml:space="preserve"
   inkscape:version="0.91 r13725"
   sodipodi:docname="emblem-hubot-synchronized.svg"
   width="281.03601"
   height="286.03601"><metadata
     id="metadata3657"><rdf:RDF><cc:Work
         rdf:about=""><dc:format>image/svg+xml</dc:format><dc:type
           rdf:resource="http://purl.org/dc/dcmitype/StillImage" /><dc:title></dc:title></cc:Work></rdf:RDF></metadata><defs
     id="defs3655" /><sodipodi:namedview
     pagecolor="#ffffff"
     bordercolor="#666666"
     borderopacity="1"
     objecttolerance="10"
     gridtolerance="10"
     guidetolerance="10"
     inkscape:pageopacity="0"
     inkscape:pageshadow="2"
     inkscape:window-width="1366"
     inkscape:window-height="744"
     id="namedview3653"
     showgrid="true"
     inkscape:zoom="1.6501419"
     inkscape:cx="186.87385"
     inkscape:cy="151.97714"
     inkscape:window-x="0"
     inkscape:window-y="24"
     inkscape:window-maximized="1"
     inkscape:current-layer="Layer_1"><inkscape:grid
       type="xygrid"
       id="grid4286" /></sodipodi:namedview><g
     id="g3623" /><g
     id="g3625" /><g
     id="g3627" /><g
     id="g3629" /><g
     id="g3631" /><g
     id="g3633" /><g
     id="g3635" /><g
     id="g3637" /><g
     id="g3639" /><g
     id="g3641" /><g
     id="g3643" /><g
     id="g3645" /><g
     id="g3647" /><g
     id="g3649" /><g
     id="g3651" /><ellipse
     style="fill:#ffffff;fill-opacity:1"
     id="path4288"
     cx="137.13248"
     cy="138.46144"
     rx="122.70983"
     ry="112.48402" /><path
     style="fill:#008000;fill-opacity:1"
     clip-path="none"
     d="M 141.1347,0.60513011 A 140.05068,142.52947 0 0 0 1.0849291,143.13546 140.05068,142.52947 0 0 0 141.1347,285.66581 140.05068,142.52947 0 0 0 281.18847,143.13546 140.05068,142.52947 0 0 0 141.1347,0.60513011 Z M 218.06002,63.174361 c 4.06629,-0.05868 9.58914,1.571209 12.67441,3.870631 8.32062,6.201329 10.67183,19.952638 4.81731,28.18092 -3.95791,5.562698 -47.30277,53.692898 -78.06372,86.683788 -13.17367,14.12867 -27.02018,29.01647 -30.76933,33.08612 -5.14721,5.58722 -8.02825,7.67787 -11.77168,8.52816 -7.99521,1.81606 -15.77249,1.38577 -19.832467,-1.09847 -7.585138,-4.64117 -50.32405,-51.65359 -52.742866,-58.01556 -6.928992,-18.22464 13.801879,-35.70346 28.416581,-23.95876 2.559142,2.05658 11.520946,11.25678 19.916402,20.44763 8.395445,9.19087 15.64091,16.71284 16.09765,16.71284 0.45675,0 7.77411,-7.64229 16.26145,-16.98047 62.57126,-68.843992 89.27608,-96.683981 93.35453,-97.325009 0.51021,-0.08024 1.06081,-0.123472 1.64173,-0.131808 z"
     id="path3673"
     inkscape:connector-curvature="0" /></svg>