<?xml version="1.0" encoding="UTF-8" standalone="no"?>
<!-- Generator: Adobe Illustrator 19.0.0, SVG Export Plug-In . SVG Version: 6.00 Build 0)  -->

<svg
   xmlns:dc="http://purl.org/dc/elements/1.1/"
   xmlns:cc="http://creativecommons.org/ns#"
   xmlns:rdf="http://www.w3.org/1999/02/22-rdf-syntax-ns#"
   xmlns:svg="http://www.w3.org/2000/svg"
   xmlns="http://www.w3.org/2000/svg"
   xmlns:sodipodi="http://sodipodi.sourceforge.net/DTD/sodipodi-0.dtd"
   xmlns:inkscape="http://www.inkscape.org/namespaces/inkscape"
   version="1.1"
   id="Layer_1"
   x="0px"
   y="0px"
   viewBox="0 0 281.036 283.036"
   xml:space="preserve"
   inkscape:version="0.91 r13725"
   sodipodi:docname="emblem-hubot-syncing.svg"
   width="281.03601"
   height="283.03601"><metadata
     id="metadata3657"><rdf:RDF><cc:Work
         rdf:about=""><dc:format>image/svg+xml</dc:format><dc:type
           rdf:resource="http://purl.org/dc/dcmitype/StillImage" /><dc:title></dc:title></cc:Work></rdf:RDF></metadata><defs
     id="defs3655" /><sodipodi:namedview
     pagecolor="#ffffff"
     bordercolor="#666666"
     borderopacity="1"
     objecttolerance="10"
     gridtolerance="10"
     guidetolerance="10"
     inkscape:pageopacity="0"
     inkscape:pageshadow="2"
     inkscape:window-width="1366"
     inkscape:window-height="744"
     id="namedview3653"
     showgrid="true"
     inkscape:zoom="1.1668265"
     inkscape:cx="-61.413974"
     inkscape:cy="96.18168"
     inkscape:window-x="0"
     inkscape:window-y="24"
     inkscape:window-maximized="1"
     inkscape:current-layer="Layer_1"><inkscape:grid
       type="xygrid"
       id="grid3833" /></sodipodi:namedview><g
     id="g3623"
     transform="translate(0,-3.0000058)" /><g
     id="g3625"
     transform="translate(0,-3.0000058)" /><g
     id="g3627"
     transform="translate(0,-3.0000058)" /><g
     id="g3629"
     transform="translate(0,-3.0000058)" /><g
     id="g3631"
     transform="translate(0,-3.0000058)" /><g
     id="g3633"
     transform="translate(0,-3.0000058)" /><g
     id="g3635"
     transform="translate(0,-3.0000058)" /><g
     id="g3637"
     transform="translate(0,-3.0000058)" /><g
     id="g3639"
     transform="translate(0,-3.0000058)" /><g
     id="g3641"
     transform="translate(0,-3.0000058)" /><g
     id="g3643"
     transform="translate(0,-3.0000058)" /><g
     id="g3645"
     transform="translate(0,-3.0000058)" /><g
     id="g3647"
     transform="translate(0,-3.0000058)" /><g
     id="g3649"
     transform="translate(0,-3.0000058)" /><g
     id="g3651"
     transform="translate(0,-3.0000058)" /><path
     style="fill:#008000;fill-opacity:1"
     clip-path="none"
     d="M 140.51159,0.0418429 A 139.90276,141.45361 0 0 0 0.60972401,141.49633 139.90276,141.45361 0 0 0 140.51159,282.95079 139.90276,141.45361 0 0 0 280.41345,141.49633 139.90276,141.45361 0 0 0 140.51159,0.0418429 Z m 0.30326,46.5211641 c 8.94848,-0.02231 18.55386,0.869657 24.93502,2.529229 14.15424,3.681126 26.95181,10.182296 38.38213,19.500436 l 6.95898,5.672925 -3.33982,3.413268 c -1.838,1.877801 -6.70421,6.507607 -10.81355,10.287383 l -7.47372,6.870157 -5.19931,-4.261633 c -6.39045,-5.236896 -16.97956,-10.511038 -25.68918,-12.796794 -9.00623,-2.363577 -23.77476,-2.346141 -32.73593,0.03964 -6.93124,1.845265 -15.58566,5.706758 -20.83704,9.296308 -10.297476,7.038827 -20.470834,19.804354 -24.923049,31.278414 -2.322895,5.98642 -4.696519,16.67466 -4.696519,21.1456 l 0,2.53321 10.72577,0.24975 c 10.117588,0.23507 10.835827,0.35474 12.708912,2.10504 1.489146,1.39157 1.987146,2.6164 1.987146,4.90385 0,2.94676 -0.57792,3.63649 -17.138081,20.34089 -9.42642,9.50851 -17.834974,17.70475 -18.68231,18.21598 -0.847314,0.51121 -2.233145,0.93162 -3.080461,0.93162 -0.847315,0 -2.233147,-0.42041 -3.080482,-0.93162 -3.509411,-2.11734 -35.151706,-34.86649 -35.7366,-36.987 -0.334548,-1.21291 -0.278502,-3.16271 0.123697,-4.33299 1.184991,-3.44791 4.053843,-4.3766 13.510958,-4.3766 l 8.399458,0 0.518733,-6.18036 C 47.992211,107.98322 62.459656,81.922461 85.015317,65.0803 96.086395,56.813542 111.96676,50.09139 126.25444,47.621483 c 4.06081,-0.701993 9.19132,-1.04508 14.56041,-1.058471 z m 78.67958,48.190139 c 2.58306,-0.01011 3.90712,1.1294 20.41408,17.605514 17.70359,17.67048 19.51904,20.01628 18.52669,23.94441 -0.91119,3.60693 -3.86564,4.67958 -13.7783,4.99504 l -9.05386,0.28544 0,4.02773 c 0,10.2202 -4.48333,26.73482 -10.37861,38.21196 -19.36124,37.69293 -59.99909,58.44168 -101.87486,52.01968 -17.81116,-2.73149 -36.724876,-11.78627 -49.826149,-23.85325 l -3.563304,-3.28246 10.574158,-10.17242 10.570134,-10.17637 5.043667,4.06737 c 8.220464,6.63239 18.426114,11.44279 29.021024,13.67291 6.89096,1.45045 20.29477,1.44463 27.26534,-0.0125 21.61922,-4.51819 40.48881,-20.51441 48.52931,-41.14159 2.44872,-6.28199 4.60074,-15.83724 4.60074,-20.42809 l 0,-3.09216 -8.66678,-0.004 c -13.21994,-0.008 -16.75504,-1.60002 -16.75503,-7.54804 0,-2.38595 1.55605,-4.18757 17.52514,-20.30123 9.63823,-9.72555 17.87159,-17.934538 18.29525,-18.243769 0.42365,-0.309227 2.01223,-0.568363 3.53136,-0.574818 z"
     id="path3673"
     inkscape:connector-curvature="0" /><circle
     style="fill:#ffffff;fill-opacity:1"
     id="path4284"
     cx="140"
     cy="143.03601"
     r="120" /><path
     style="fill:#005280;fill-opacity:1"
     d="M 123.90814,281.60846 C 83.574102,276.54965 46.64581,253.4219 24.065994,219.07849 14.629645,204.726 6.4819043,184.1679 3.1767446,166.37142 0.76302742,153.37488 0.95371506,127.7307 3.5607377,114.73101 16.556571,49.928439 70.051103,3.5051803 134.86342,0.7848253 c 24.14508,-1.01343695 45.32004,3.5177 67.26561,14.3938717 38.45091,19.056179 65.35931,54.197637 75.15319,98.147533 1.64764,7.39378 1.88967,11.00451 1.88967,28.19146 0,17.18695 -0.24203,20.79767 -1.88967,28.19145 -12.73074,57.12902 -54.95828,99.26172 -110.51823,110.27005 -10.47739,2.07593 -32.59148,2.91665 -42.85585,1.62927 z m 31.71885,-45.80311 c 37.38239,-6.51894 67.97742,-35.07235 77.45696,-72.28822 1.16097,-4.55787 2.34079,-11.22088 2.62182,-14.80669 l 0.51095,-6.51965 8.27392,-0.50406 c 9.68075,-0.58978 12.58541,-1.50423 13.89286,-4.37377 1.87647,-4.11841 0.19705,-6.42655 -17.96414,-24.68914 -17.28157,-17.378077 -17.80841,-17.820602 -21.21207,-17.817354 -3.40165,0.0034 -3.92927,0.446965 -20.76138,17.460044 -9.49907,9.60119 -17.65132,18.45697 -18.11614,19.67951 -1.17027,3.07805 0.32025,6.92861 3.20162,8.27092 1.27278,0.59295 6.70038,1.28049 12.06132,1.52787 l 9.74715,0.44979 -0.57781,5.63985 c -0.3178,3.10192 -1.78078,9.26767 -3.25108,13.70167 -6.55306,19.76235 -22.25602,35.29451 -42.66173,42.19771 -7.63302,2.58224 -8.89143,2.75434 -20.14009,2.75434 -11.25044,0 -12.50476,-0.17161 -20.12222,-2.75306 -9.04288,-3.06451 -14.6217,-6.01711 -22.359918,-11.83404 l -5.211949,-3.91789 -4.86331,4.61573 c -12.470639,11.83578 -16.433154,15.76361 -16.433154,16.2893 0,0.31269 2.668491,2.7517 5.929982,5.42002 12.500092,10.22671 28.206879,17.83083 43.477939,21.04893 9.49399,2.00069 26.40686,2.20837 36.50047,0.44819 z M 82.661944,171.23934 c 18.958316,-19.1057 20.365176,-21.15508 17.511976,-25.50961 -2.054039,-3.13487 -4.640199,-3.78353 -15.084656,-3.78353 l -9.371487,0 0.006,-2.78533 c 0.0084,-3.91365 2.984844,-15.88422 5.470557,-22.0016 4.763895,-11.72403 18.124707,-26.902512 28.494607,-32.371164 11.15845,-5.884505 16.84732,-7.362962 29.87722,-7.764663 9.08292,-0.28002 13.43367,-0.03437 17.90534,1.010973 7.95192,1.858919 18.54315,6.960145 25.63409,12.346568 3.20667,2.435846 6.13286,4.428816 6.50263,4.428816 0.89265,0 21.51957,-19.675457 21.51957,-20.526934 0,-1.036801 -12.2142,-10.356309 -18.9778,-14.480171 -7.78196,-4.744775 -20.63923,-9.878984 -29.44413,-11.75773 -10.61411,-2.264783 -32.05742,-2.117971 -41.7132,0.285591 -30.409563,7.56969 -52.99038,25.784092 -66.218152,53.413654 -4.802072,10.03034 -7.753895,20.22659 -9.120882,31.50554 l -1.053994,8.69645 -8.223383,0.0126 c -4.875666,0.008 -9.089822,0.45102 -10.351714,1.0895 -2.51614,1.27308 -3.904084,4.65467 -3.147588,7.66878 0.303093,1.20762 8.365498,10.12852 18.334905,20.28723 16.46334,16.77593 18.016414,18.12979 20.769206,18.10502 2.721495,-0.0245 4.485505,-1.54873 20.680886,-17.87003 l 0,4e-5 z"
     id="path3472"
     inkscape:connector-curvature="0" /></svg>